<?xml version="1.0" encoding="utf-8"?>
<!-- Generator: Adobe Illustrator 16.0.0, SVG Export Plug-In . SVG Version: 6.00 Build 0)  -->
<!DOCTYPE svg PUBLIC "-//W3C//DTD SVG 1.1//EN" "http://www.w3.org/Graphics/SVG/1.1/DTD/svg11.dtd">
<svg version="1.1" id="Layer_1" xmlns="http://www.w3.org/2000/svg" xmlns:xlink="http://www.w3.org/1999/xlink" x="0px" y="0px"
	 width="150.486px" height="150.667px" viewBox="0 0 274.486 255.667" enable-background="new 0 0 274.486 255.667"
	 xml:space="preserve">
<g>
	<path fill="#fff" d="M90.079,223.05h5.19v6.692h-3.155c-2.526,0-4.077-0.465-4.817-1.398c-0.84-0.629-1.263-2.104-1.263-4.641
		v-3.998c0-1.358,0.128-2.528,0.352-3.472c0.277-1.04,0.604-1.679,1.057-1.981c0.825-0.843,2.42-1.253,4.854-1.253
		c1.642,0,3.588,0.185,5.721,0.523l-0.394-3.929c-2.177-0.391-4.192-0.604-5.972-0.604c-4.595,0-7.716,1.45-9.557,4.443
		c-0.875,1.33-1.327,3.691-1.327,7.088v1.648c0,2.828,0.266,4.891,0.789,6.131c1.533,3.716,4.829,5.534,10.034,5.534
		c1.87,0,3.708-0.147,5.526-0.437c0.59-0.087,1.199-0.222,1.857-0.364v-13.53H92.05L90.079,223.05z"/>
	<path fill="#fff" d="M108.694,216.234c-1.275,0-2.534,0.201-3.672,0.55c-2.413,0.959-3.585,2.881-3.585,5.889v4.34
		c0,1.091,0.191,2.157,0.59,3.125c1.081,2.512,3.45,3.74,7.22,3.74c1.514,0,2.87-0.088,4.018-0.213
		c1.418-0.215,2.087-0.332,2.403-0.406v-3.516c-1.823,0.348-3.767,0.514-5.612,0.514h-0.436c-0.744,0-1.457-0.064-2.138-0.252
		c-0.725-0.242-1.562-0.904-1.562-2.663v-1.079h10.208v-2.715c0-1.709-0.214-3.027-0.614-3.912
		C114.464,217.37,112.24,216.234,108.694,216.234z M111.812,223.69h-6.085v-0.698c0-0.929,0.28-1.64,0.797-2.118
		c0.467-0.442,1.214-0.668,2.199-0.668c0.749,0,1.363,0.191,1.953,0.52c0.732,0.473,1.136,1.244,1.136,2.822V223.69z"/>
	<path fill="#fff" d="M133.084,218.539c-0.526-0.86-1.146-1.474-1.833-1.769c-0.7-0.312-1.544-0.465-2.612-0.465
		c-0.288,0-0.442,0-0.562,0c-1.022,0.047-1.946,0.226-2.748,0.479c-0.683,0.229-1.238,0.475-1.597,0.659
		c-0.442,0.235-0.497,0.248-0.649,0.248h-0.405v-1.16h-4.199v17.062h4.507v-12.699l0.25-0.133c0.735-0.413,1.565-0.703,2.617-0.846
		c0.096-0.044,0.595-0.044,1.202,0.02c1.361,0.311,2.074,1.202,2.074,2.576v11.082h4.568V223.53c0-1.452-0.066-2.562-0.155-3.324
		C133.475,219.483,133.3,218.917,133.084,218.539z"/>
	<path fill="#fff" d="M162.194,209.203h-6.922l-9.796,15.145v3.844h12.54v5.431h4.178v-5.431h2.672l0.523-4.087h-3.195V209.203z
		 M158.017,224.105h-7.495l7.495-11.425V224.105z"/>
	<path fill="#fff" d="M177.155,226.7c0.929-0.764,1.895-1.575,2.87-2.455c0.752-0.678,1.588-1.553,2.482-2.551
		c0.604-0.697,1.135-1.582,1.683-2.693c0.403-0.875,0.622-1.846,0.622-2.86c0-2.231-0.742-3.954-2.256-5.269
		c-1.509-1.278-3.69-1.937-6.453-1.937c-2.271,0-4.445,0.442-6.419,1.349l-0.555,4.64c0.783-0.391,1.611-0.759,2.408-1.079
		c1.204-0.435,2.125-0.693,2.87-0.782c1.538-0.187,2.812,0,3.735,0.568c0.987,0.604,1.501,1.624,1.386,2.941
		c-0.015,0.472-0.108,0.982-0.339,1.509c-0.244,0.497-0.497,0.944-0.742,1.317c-0.264,0.354-0.681,0.781-1.239,1.326
		c-0.653,0.576-1.904,1.667-3.784,3.232c-1.022,0.882-1.922,1.607-2.6,2.211l-3.244,2.779v4.518h16.823l0.473-4.072h-11.044
		L177.155,226.7z"/>
	<path fill="#4AC7F4" d="M48.332,104.426c0-46.671,37.83-84.501,84.496-84.501c46.672,0,84.496,37.83,84.496,84.501
		s-37.824,84.511-84.496,84.511C86.162,188.937,48.332,151.097,48.332,104.426z"/>
	<g>
		<path fill="#122734" d="M132.826,14.839c-49.396,0-89.593,40.192-89.593,89.582c0,49.419,40.196,89.603,89.593,89.603
			c49.392,0,89.6-40.184,89.6-89.603C222.426,55.032,182.218,14.839,132.826,14.839z M132.826,187.944
			c-46.064,0-83.514-37.468-83.514-83.523c0-46.037,37.449-83.509,83.514-83.509s83.501,37.472,83.501,83.509
			C216.327,150.476,178.891,187.944,132.826,187.944z"/>
	</g>
	<path fill="#FFFFFF" d="M116.157,177.563c5.312,1.165,10.835,1.792,16.484,1.792c41.732,0,75.596-33.854,75.596-75.607
		c0-7.257-1.047-14.268-2.949-20.908c-0.659-1.543-2.698-1.076-3.981-1.573c-1.248-0.467-2.206-1.855-2.206-3.971
		c0-0.843,0.307-2.684,0.469-3.479c0.214-0.831,1.05-1.325,1.818-1.467c-11.926-26.056-38.186-44.182-68.746-44.182
		c-10.27,0-20.067,2.057-29.008,5.78c-1.548,0.629,5.819,28.049,14.293,32.082c10.117,4.809,48.974,3.384,49.443,9.114
		c0.506,5.765-0.47,8.65-0.47,8.65s-31.197-0.954-39.842,4.295c-5.891,3.617-26.486,34.237-39.015,53.4l4.601-38.734
		c1.116-0.467,2.646-1.17,3.607-2.064c0.089-0.069,0.152-0.157,0.241-0.226c0.378-0.339,0.734-0.727,0.934-1.103
		c0.196-0.342,0.334-0.681,0.349-1.054l0,0l1.716-7.437l1.108-4.792c0.041-1.907-1.32-3.484-3.095-3.543
		c-0.107,0-0.255,0-0.358,0.029l-0.104,3.166l-0.021,0.541c-0.018,0.187-0.185,0.339-0.371,0.339c-0.233,0-0.379-0.167-0.379-0.374
		l0.069-1.204l-0.01-0.071l0.015-0.543l0.034-1.695l0.423-18.682c0.068-1.912-1.138-3.494-2.651-3.534
		c-1.536-0.034-2.844,1.465-2.896,3.372l-0.314,15.794l-0.026,0.268c0,0.187-0.152,0.349-0.379,0.339
		c-0.182,0-0.339-0.165-0.334-0.383l0.029-1.303c-0.521-0.374-1.155-0.58-1.818-0.597c-1.327-0.032-2.482,0.676-3.089,1.748
		l-0.057,1.125c0,0.191-0.162,0.374-0.389,0.374c-0.201,0-0.368-0.187-0.368-0.403l0.062-0.757c-0.4-0.177-0.88-0.295-1.347-0.295
		c-1.595-0.044-2.959,1.013-3.406,2.448v0.934c0,0.012,0,0.012,0,0.032l-0.042,0.017c-0.036,0.16-0.191,0.3-0.354,0.3
		c-0.212,0-0.356-0.182-0.364-0.374l0.008-0.083c-1.688,0.187-3.022,1.602-3.094,3.33l0.457,3.494
		c0.068,0.784,0.901,3.701,2.045,6.421c0.193,0.572,0.422,1.101,0.692,1.602c0.442,0.835,1.005,1.627,1.686,2.345
		c0.428,0.467,0.93,0.889,1.416,1.263c0.185,0.096,0.329,0.167,0.491,0.271c-1.405,9.117-3.693,23.803-5.45,34.429
		c-2.698,16.302,1.076,20.212,1.076,20.212c1.747,1.762,6.011,2.73,7.991,0.971c1.659-1.4,14.73-15.747,24.634-21.768
		c3.364-2.045,6.782-3.487,10.001-4.537"/>
</g>
</svg>
